<svg 
    xmlns="http://www.w3.org/2000/svg"
    width="1em"
    height="1em"
    viewBox="0 0 24 24"
>
    <path
        fill="#FFFFFF"
        d="M12 0C5.37 0 0 5.37 0 12c0 5.3 3.438 9.8 8.207 11.387.599.111.793-.261.793-.579 0-.285-.01-1.04-.015-2.04-3.338.725-4.042-1.61-4.042-1.61-.546-1.387-1.333-1.758-1.333-1.758-1.09-.745.083-.729.083-.729 1.205.084 1.838 1.237 1.838 1.237 1.07 1.834 2.808 1.304 3.493.996.109-.775.42-1.305.764-1.606-2.665-.303-5.466-1.334-5.466-5.933 0-1.312.469-2.384 1.237-3.225-.124-.303-.536-1.522.117-3.173 0 0 1.01-.324 3.3 1.23.957-.266 1.983-.399 3.003-.404 1.02.005 2.047.138 3.006.404 2.287-1.554 3.297-1.23 3.297-1.23.655 1.651.243 2.87.12 3.173.77.841 1.235 1.913 1.235 3.225 0 4.61-2.805 5.625-5.476 5.921.43.371.815 1.102.815 2.221 0 1.606-.015 2.898-.015 3.293 0 .321.191.695.8.577C20.565 21.796 24 17.298 24 12c0-6.63-5.37-12-12-12z"
    />
</svg>